#!OML:ASF E:\Mandelcareful walks\Project 1\Capture day 1\Session 1\Subject1.ASF
:FULLY-SPECIFIED
:DEGREES
247
root 7.91691 15.8541 -0.687618 -37.5894 -86.2003 45.7535
lowerback 30.0587 2.0979 -0.321598
upperback 7.47261 1.76236 -1.2435
thorax -8.05893 0.555513 -1.79975
lowerneck -23.2154 13.2677 6.50093
upperneck 26.0142 21.2056 -14.8136
head 15.5676 7.65159 -2.5969
rclavicle 1.13307e-014 9.54166e-015
rhumerus -15.2963 -4.34341 -87.0196
rradius 76.194
rwrist -15.4182
rhand -12.6919 -32.7113
rfingers 7.12502
rthumb 13.3902 -62.261
lclavicle 1.13307e-014 9.54166e-015
lhumerus -9.88669 -9.75037 84.8911
lradius 70.8467
lwrist 15.2809
lhand -23.1462 -11.7337
lfingers 7.12502
lthumb 3.30187 18.2205
rfemur -30.1167 -15.8517 4.1814
rtibia 42.5456
rfoot -14.2774 -7.13109
rtoes -8.55344
lfemur -37.4409 11.7856 -16.8771
ltibia 53.9945
lfoot -19.3844 0.401246
ltoes 0.451853
248
root 7.91123 15.8569 -0.664941 -35.1746 -85.9039 43.4259
lowerback 29.8655 2.16031 -0.451523
upperback 7.60526 1.79535 -1.30203
thorax -7.81764 0.572984 -1.79344
lowerneck -23.2391 13.3894 6.70235
upperneck 25.9531 21.4172 -15.1383
head 15.6613 7.71731 -2.70122
rclavicle 1.82882e-014 2.78299e-015
rhumerus -15.0933 -4.35372 -87.0662
rradius 76.0718
rwrist -15.4198
rhand -12.5695 -33.1561
rfingers 7.12502
rthumb 13.5082 -62.698
lclavicle 1.82882e-014 2.78299e-015
lhumerus -9.61883 -9.82238 84.8035
lradius 70.5306
lwrist 15.2157
lhand -23.0229 -12.0849
lfingers 7.12502
lthumb 3.42101 17.8674
rfemur -29.984 -16.1226 3.97465
rtibia 42.4315
rfoot -14.2232 -7.17968
rtoes -8.50681
lfemur -37.5954 11.6131 -17.1117
ltibia 54.0692
lfoot -19.4316 0.26842
ltoes 0.37171
249
root 7.90764 15.8593 -0.642772 -32.6065 -85.7402 40.9287
lowerback 29.6783 2.21042 -0.522285
upperback 7.73692 1.83528 -1.31114
thorax -7.58029 0.592533 -1.7682
lowerneck -23.1984 13.4933 6.74054
upperneck 25.8632 21.6179 -15.3559
head 15.6859 7.7838 -2.74336
rclavicle -1.78906e-014 -1.49089e-014
rhumerus -15.0995 -4.1839 -87.0455
rradius 76.0718
rwrist -15.7214
rhand -12.7976 -32.5164
rfingers 7.12502
rthumb 13.2883 -62.0728
lclavicle -1.78906e-014 -1.49089e-014
lhumerus -9.58899 -9.69555 84.7426
lradius 70.4953
lwrist 14.999
lhand -22.7778 -12.5667
lfingers 7.12502
lthumb 3.65772 17.3816
rfemur -29.9246 -16.2434 3.91239
rtibia 42.4191
rfoot -14.208 -7.33004
rtoes -8.71906
lfemur -37.7586 11.5343 -17.225
ltibia 54.1821
lfoot -19.4917 0.203013
ltoes -0.105364
250
root 7.89532 15.8542 -0.617802 -31.1176 -85.776 39.4023
lowerback 29.6104 2.31211 -0.524522
upperback 7.81469 1.95492 -1.35488
thorax -7.45518 0.648112 -1.85343
lowerneck -23.0688 13.5438 6.77294
upperneck 25.8296 21.6896 -15.3971
head 15.6645 7.8227 -2.75181
rclavicle 4.37326e-015 4.23411e-014
rhumerus -15.2726 -4.10261 -86.9915
rradius 76.1401
rwrist -16.029
rhand -12.6304 -31.9384
rfingers 7.12502
rthumb 13.4495 -61.4842
lclavicle 4.37326e-015 4.23411e-014
lhumerus -10.0655 -9.70268 84.6219
lradius 70.9494
lwrist 14.8541
lhand -22.6058 -13.1265
lfingers 7.12502
lthumb 3.82378 16.8189
rfemur -29.8165 -16.1599 3.90096
rtibia 42.4328
rfoot -14.2303 -7.45929
rtoes -8.88458
lfemur -37.7678 11.5157 -17.2089
ltibia 54.3305
lfoot -19.6323 0.168119
ltoes -0.0374377
251
root 7.91759 15.839 -0.620288 -25.4157 -85.2304 33.9079
lowerback 29.7807 2.22339 -0.588697
upperback 7.67935 1.83684 -1.33219
thorax -7.69579 0.596495 -1.75882
lowerneck -22.9266 13.6169 6.85694
upperneck 25.8909 21.783 -15.4048
head 15.6885 7.8735 -2.75186
rclavicle 1.19271e-015 -7.95139e-015
rhumerus -15.3793 -4.11501 -87.0135
rradius 76.0395
rwrist -16.1729
rhand -12.0794 -31.7515
rfingers 7.12502
rthumb 13.9805 -61.2614
lclavicle 1.19271e-015 -7.95139e-015
lhumerus -10.1633 -9.77022 84.4975
lradius 70.7823
lwrist 14.812
lhand -22.3934 -13.5967
lfingers 7.12502
lthumb 4.02893 16.3449
rfemur -29.9129 -16.4718 3.9747
rtibia 42.5201
rfoot -14.2594 -7.82912
rtoes -8.78941
lfemur -38.3192 11.2098 -17.2001
ltibia 54.4905
lfoot -19.4554 -0.193836
ltoes 0.40058
252
root 7.92344 15.8338 -0.610211 -22.4073 -84.9043 30.9684
lowerback 29.9252 2.21221 -0.602895
upperback 7.62818 1.82315 -1.30684
thorax -7.82443 0.591087 -1.72315
lowerneck -22.759 13.6778 6.81348
upperneck 25.9042 21.904 -15.439
head 15.677 7.92487 -2.73733
rclavicle 2.04748e-014 7.35503e-015
rhumerus -15.7196 -4.05549 -87.094
rradius 76.097
rwrist -16.0189
rhand -11.8563 -31.6651
rfingers 7.12502
rthumb 14.1955 -61.16
lclavicle 2.04748e-014 7.35503e-015
lhumerus -10.3051 -9.79842 84.426
lradius 70.7116
lwrist 14.7859
lhand -22.1944 -13.8015
lfingers 7.12502
lthumb 4.22108 16.1365
rfemur -29.8488 -16.7616 3.99905
rtibia 42.5361
rfoot -14.206 -7.94946
rtoes -9.14451
lfemur -38.5455 11.0262 -17.2118
ltibia 54.6013
lfoot -19.436 -0.372771
ltoes 0.467043
253
root 7.91646 15.8332 -0.587788 -21.5035 -84.7496 30.0056
lowerback 30.0582 2.29 -0.536721
upperback 7.64662 1.92905 -1.36814
thorax -7.85945 0.638727 -1.87119
lowerneck -22.6555 13.68 6.85547
upperneck 25.9444 21.9088 -15.4588
head 15.6837 7.93272 -2.75656
rclavicle -2.06736e-014 -3.39922e-014
rhumerus -16.2061 -4.08286 -87.1526
rradius 76.1914
rwrist -15.6403
rhand -11.8436 -31.4477
rfingers 7.12502
rthumb 14.2077 -60.9418
lclavicle -2.06736e-014 -3.39922e-014
lhumerus -10.3724 -10.0058 84.3787
lradius 70.4399
lwrist 14.7771
lhand -22.0907 -14.8116
lfingers 7.12502
lthumb 4.32114 15.1243
rfemur -29.6682 -16.9844 3.88609
rtibia 42.568
rfoot -14.2228 -7.90001
rtoes -9.65489
lfemur -38.532 10.8284 -17.2935
ltibia 54.6765
lfoot -19.5117 -0.32431
ltoes 0.484989
254
root 7.90346 15.8337 -0.566968 -21.2078 -84.6617 29.4715
lowerback 30.2873 2.39766 -0.531575
upperback 7.75051 2.04253 -1.42649
thorax -7.84462 0.686524 -1.98448
lowerneck -22.6495 13.6776 6.94392
upperneck 25.9882 21.9024 -15.5133
head 15.7245 7.9289 -2.79452
rclavicle -1.03368e-014 1.51076e-014
rhumerus -16.345 -4.00745 -87.1518
rradius 75.9679
rwrist -15.4336
rhand -11.7838 -31.0642
rfingers 7.12502
rthumb 14.2653 -60.5542
lclavicle -1.03368e-014 1.51076e-014
lhumerus -10.508 -10.1212 84.3298
lradius 70.267
lwrist 14.7364
lhand -21.866 -15.9669
lfingers 7.12502
lthumb 4.53821 13.9644
rfemur -29.2434 -16.9897 3.67756
rtibia 42.5191
rfoot -14.3508 -7.86409
rtoes -9.31085
lfemur -38.2333 10.6245 -17.3154
ltibia 54.687
lfoot -19.6178 -0.262102
ltoes 0.597089
255
root 7.90194 15.8317 -0.559949 -20.1777 -84.4976 28.7079
lowerback 29.9509 2.46568 -0.739015
upperback 7.78465 2.07905 -1.43892
thorax -7.65265 0.710224 -1.87981
lowerneck -22.6815 13.7037 6.96158
upperneck 25.9365 21.9579 -15.6061
head 15.736 7.94316 -2.81729
rclavicle 1.72943e-014 1.45113e-014
rhumerus -15.9958 -3.82404 -87.1395
rradius 75.3967
rwrist -15.3012
rhand -11.8309 -30.5689
rfingers 7.12502
rthumb 14.2199 -60.0621
lclavicle 1.72943e-014 1.45113e-014
lhumerus -10.6335 -10.0554 84.1931
lradius 70.2888
lwrist 14.5631
lhand -21.6437 -16.2833
lfingers 7.12502
lthumb 4.75285 13.6434
rfemur -29.4505 -17.0666 3.68059
rtibia 42.5495
rfoot -14.3992 -7.98878
rtoes -8.64401
lfemur -38.5947 10.601 -17.4143
ltibia 54.7272
lfoot -19.5549 -0.361084
ltoes 0.442237
256
root 7.89879 15.8332 -0.551781 -20.5001 -84.3315 29.0355
lowerback 29.9539 2.56017 -0.898957
upperback 7.86243 2.1379 -1.51344
thorax -7.56752 0.737626 -1.88976
lowerneck -22.737 13.6993 6.99868
upperneck 25.9346 21.9412 -15.6134
head 15.7511 7.93645 -2.82669
rclavicle -1.39149e-014 -3.33958e-014
rhumerus -15.5376 -3.78601 -87.0325
rradius 74.752
rwrist -15.2376
rhand -11.9739 -30.0017
rfingers 7.12502
rthumb 14.0822 -59.5045
lclavicle -1.39149e-014 -3.33958e-014
lhumerus -10.6525 -10.1955 84.0327
lradius 70.2499
lwrist 14.2994
lhand -22.0678 -15.5465
lfingers 7.12502
lthumb 4.34333 14.389
rfemur -29.4229 -17.1031 3.48698
rtibia 42.6351
rfoot -14.4166 -8.02988
rtoes -8.18217
lfemur -38.6363 10.6005 -17.5959
ltibia 54.7867
lfoot -19.6071 -0.415549
ltoes 0.0727725
257
root 7.89825 15.8276 -0.545906 -20.3874 -84.1376 29.1576
lowerback 29.7148 2.63606 -1.03575
upperback 7.88265 2.19922 -1.57155
thorax -7.43241 0.771187 -1.88871
lowerneck -22.8249 13.6664 6.93568
upperneck 26.0601 21.883 -15.4539
head 15.7812 7.91412 -2.76609
rclavicle 2.98177e-014 5.56597e-015
rhumerus -15.3536 -3.72814 -86.916
rradius 74.3935
rwrist -15.1281
rhand -12.0642 -29.7389
rfingers 7.12502
rthumb 13.9952 -59.2478
lclavicle 2.98177e-014 5.56597e-015
lhumerus -10.6736 -10.4051 83.9181
lradius 70.0996
lwrist 14.0876
lhand -22.825 -14.21
lfingers 7.12502
lthumb 3.61209 15.7391
rfemur -29.6807 -17.2674 3.39286
rtibia 42.7858
rfoot -14.4399 -8.07384
rtoes -8.28398
lfemur -39.0017 10.5591 -17.8058
ltibia 54.9101
lfoot -19.6545 -0.478004
ltoes -0.300439
